<?xml version="1.0"?><svg xmlns="http://www.w3.org/2000/svg" viewBox="0 0 100 100"><g><path d="M85.6 36.8c0 5.5-15.9 9.9-35.6 9.9s-35.6-4.4-35.6-9.9S31.2 7.5 50.8 7.5s34.8 23.8 34.8 29.3z" fill="#f8b26a" stroke="#333" stroke-width="3" stroke-linecap="round" stroke-linejoin="round" stroke-miterlimit="10"/><ellipse cx="50" cy="35.9" rx="28.7" ry="4.7" fill="#333" stroke="#333" stroke-width="3" stroke-linecap="round" stroke-linejoin="round" stroke-miterlimit="10"/><ellipse transform="rotate(-7.387 49.24 22.205)" cx="49.3" cy="22.2" rx="5.2" ry="4" fill="#e15b64" stroke="#333" stroke-width="3" stroke-miterlimit="10"/><path d="M32 22.2c7.2-1.9 12-7.8 11.4-13.6-8 2.3-15.1 7.9-20.2 13.6 2.7.8 5.7.8 8.8 0z" fill="#e15b64" stroke="#333" stroke-width="3" stroke-miterlimit="10"/><path d="M61.1 18.4c4.1.9 8-.1 10.2-2.4-5.2-4.4-11.5-7.9-18.5-8.5l-.3.9c-.8 4.3 3 8.8 8.6 10z" fill="#e15b64" stroke="#333" stroke-width="3" stroke-miterlimit="10"/><path d="M71.1 23.3c.2 2.5 3.7 4.1 7.7 3.7.7-.1 1.4-.2 2-.4-1.7-2.5-3.8-5.2-6.3-7.7-2.1 1.1-3.5 2.8-3.4 4.4z" fill="#e15b64" stroke="#333" stroke-width="3" stroke-miterlimit="10"/></g><path d="M62.2 80.6c3.9 9.8-5.4 11.9-8.5 11.9-4.4 0-6.4-1.7-8.9-6.2-8.5-15.9-2.9-32.3 0-48.5 1-5.5 11.7-3.8 11.1 0-1.1 15.6.6 28.5 6.3 42.8z" fill="#e0e0e0" stroke="#333" stroke-width="3" stroke-linecap="round" stroke-linejoin="round" stroke-miterlimit="10"/><metadata xmlns:d="https://loading.io/stock/">
<d:name>mushroom</d:name>
<d:tags>mushroom,plant,food,poison</d:tags>
<d:license>by</d:license>
<d:slug>b654rh</d:slug>
</metadata></svg>